<svg xmlns="http://www.w3.org/2000/svg" viewBox="0 0 64 64"><defs><style>.cls-1{fill:#fd7504;}.cls-2{fill:#fd8f07;}.cls-3{fill:#fda736;}.cls-4{fill:#fed370;}.cls-5{fill:#898ec9;}.cls-6{fill:#6163aa;}.cls-7{fill:#35214c;}</style></defs><title>saturn</title><g id="saturn"><path class="cls-1" d="M23,18a5.42,5.42,0,0,1-.06.81,16,16,0,0,0-4.73,5.07A6,6,0,1,1,23,18Z"/><path class="cls-2" d="M20,15a6,6,0,0,1-8.47,5.47,6,6,0,0,1,7.94-7.94A6,6,0,0,1,20,15Z"/><path class="cls-3" d="M48,32A16,16,0,0,1,23.69,45.67c.82-.27,1.67-.57,2.53-.91A16,16,0,0,0,43.84,35c1.5-1.11,2.89-2.23,4.15-3.34C48,31.77,48,31.88,48,32Z"/><path class="cls-4" d="M43.84,35a16,16,0,0,1-17.62,9.77,73.78,73.78,0,0,0,10.28-5A75.15,75.15,0,0,0,43.84,35Z"/><path class="cls-5" d="M48,31.65A72,72,0,0,1,36.5,39.79a70.39,70.39,0,0,1-12.81,5.88,33.45,33.45,0,0,1-8.76,1.88,12.57,12.57,0,0,1-3.41-.2,4.26,4.26,0,0,1-2.9-1.85C7,42.68,10.06,37.61,16,32.35a15.88,15.88,0,0,0,.77,4.59c-2.44,2.43-3.61,4.45-3,5.56a2.26,2.26,0,0,0,1.92.85,10.62,10.62,0,0,0,2.44-.2c.6-.11,1.26-.26,2-.45A64.37,64.37,0,0,0,34.5,36.33a64.25,64.25,0,0,0,12.71-9.27c2.45-2.42,3.62-4.45,3-5.56-.41-.71-1.52-1-3.14-.82a17.09,17.09,0,0,0-2.76.51l-.42.11a15.47,15.47,0,0,0-3.57-3A38.5,38.5,0,0,1,47,16.66a18.89,18.89,0,0,1,3.78-.22c2.27.11,3.89.78,4.62,2.06C57,21.32,53.94,26.39,48,31.65Z"/><path class="cls-3" d="M45,29.08V29a16,16,0,0,0-3.21-9.64,15.28,15.28,0,0,1,2.08,1.94,4.48,4.48,0,0,1,.36.4,15.71,15.71,0,0,1,2,3,14.07,14.07,0,0,1,1,2.34C46.56,27.71,45.82,28.39,45,29.08Z"/><path class="cls-4" d="M45,29v.08a72.53,72.53,0,0,1-10.5,7.25,65.55,65.55,0,0,1-14,6.25l-.41.12c-.27-.3-.53-.6-.77-.92l0,0c-.25-.32-.48-.65-.71-1a16.37,16.37,0,0,1-1.69-3.34c-.06-.16-.11-.33-.16-.49A15.88,15.88,0,0,1,16,32.35c0-.12,0-.23,0-.35A16,16,0,0,1,32,16a15.64,15.64,0,0,1,1.83.11,15.31,15.31,0,0,1,4,1h0a15.54,15.54,0,0,1,2.45,1.22,15,15,0,0,1,1.48,1h0A16,16,0,0,1,45,29Z"/><path class="cls-6" d="M48,52.5a3.5,3.5,0,0,1-6.76,1.26A3.32,3.32,0,0,1,41,52.5,3.5,3.5,0,0,1,44.5,49a3.32,3.32,0,0,1,1.26.24A3.49,3.49,0,0,1,48,52.5Z"/><path class="cls-5" d="M46,50.5A3.5,3.5,0,0,1,42.5,54a3.32,3.32,0,0,1-1.26-.24A3.32,3.32,0,0,1,41,52.5,3.5,3.5,0,0,1,44.5,49a3.32,3.32,0,0,1,1.26.24A3.32,3.32,0,0,1,46,50.5Z"/><path class="cls-7" d="M16.12,44.36h-.45a4.27,4.27,0,0,1-1.84-.49A1,1,0,0,1,14.29,42h0a1,1,0,0,1,.51.14,2.29,2.29,0,0,0,1,.23A9.17,9.17,0,0,0,18,42.17c.59-.11,1.22-.26,1.88-.43A64.41,64.41,0,0,0,34,35.46a63.29,63.29,0,0,0,12.5-9.11c2.79-2.75,3-4.07,2.82-4.35s-.68-.46-2.18-.32a15.16,15.16,0,0,0-2.6.48c-.16,0-.28.07-.39.1a1,1,0,0,1-1-.3,14.37,14.37,0,0,0-3.34-2.77,1,1,0,0,1,.2-1.81,39.64,39.64,0,0,1,6.86-1.71,19.89,19.89,0,0,1,4-.23c2.71.13,4.54,1,5.44,2.56,1.86,3.23-.9,8.48-7.6,14.4-1.29,1.14-2.74,2.3-4.3,3.45a1,1,0,0,1-1.18-1.6c1.51-1.12,2.91-2.25,4.16-3.35,5.65-5,8.47-9.67,7.18-11.9-.66-1.17-2.43-1.5-3.8-1.56a17.5,17.5,0,0,0-3.58.21,34.12,34.12,0,0,0-4.59,1,17,17,0,0,1,1.66,1.51,19.36,19.36,0,0,1,2.76-.5c2.1-.19,3.48.25,4.1,1.32.89,1.55-.17,3.83-3.15,6.77A64.87,64.87,0,0,1,35,37.2a66.28,66.28,0,0,1-14.61,6.47c-.71.19-1.39.35-2,.46A12.13,12.13,0,0,1,16.12,44.36Z"/><path class="cls-7" d="M13.92,48.58a12.37,12.37,0,0,1-2.61-.25A5.23,5.23,0,0,1,7.75,46c-1.86-3.23.9-8.48,7.6-14.4a1,1,0,0,1,1.66.73,15,15,0,0,0,.72,4.3,1,1,0,0,1-.24,1,17.79,17.79,0,0,0-1.86,2.12A1,1,0,0,1,14,38.59a19.28,19.28,0,0,1,1.64-1.93,18.16,18.16,0,0,1-.47-2.19C10.53,38.94,8.32,43,9.49,45a3.33,3.33,0,0,0,2.26,1.38,12.14,12.14,0,0,0,3.12.17,32.39,32.39,0,0,0,8.5-1.83A68.94,68.94,0,0,0,36,38.92c1.3-.75,2.63-1.57,4-2.44a1,1,0,1,1,1.1,1.66c-1.35.9-2.71,1.75-4,2.52a71.94,71.94,0,0,1-13,6,34.67,34.67,0,0,1-9,1.93Z"/><path class="cls-7" d="M16.12,44.36h-.45a4.19,4.19,0,0,1-1.88-.51,1,1,0,0,1,1-1.72,2.29,2.29,0,0,0,1,.23A9.17,9.17,0,0,0,18,42.17l.35-.07q-.29-.37-.54-.78a16.67,16.67,0,0,1-1.39-2.53,11.89,11.89,0,0,0-.78,1A1,1,0,0,1,14,38.59a20.8,20.8,0,0,1,2.06-2.36A1,1,0,0,1,17,36a1,1,0,0,1,.71.67l0,.11c0,.11.07.22.11.33a15.39,15.39,0,0,0,1.58,3.14A14.39,14.39,0,0,0,20.87,42a1,1,0,0,1,.22,1,1,1,0,0,1-.7.69c-.71.19-1.39.35-2,.46A12.13,12.13,0,0,1,16.12,44.36Z"/><path class="cls-7" d="M47.21,28.06A1,1,0,0,1,47,28a1,1,0,0,1-.72-.68,13.15,13.15,0,0,0-.9-2.17,14.65,14.65,0,0,0-1.88-2.83,3.6,3.6,0,0,0-.31-.34,1,1,0,0,1,.43-1.67l.49-.13A18.93,18.93,0,0,1,47,19.68c2.1-.19,3.48.25,4.1,1.32.89,1.55-.17,3.83-3.15,6.77A1,1,0,0,1,47.21,28.06ZM45.66,21.9a15.92,15.92,0,0,1,1.47,2.37c.16.31.32.63.46.94,1.75-2,1.87-3,1.73-3.21s-.68-.46-2.18-.32A11.31,11.31,0,0,0,45.66,21.9Z"/><path class="cls-7" d="M16.12,44.36h-.45a4.19,4.19,0,0,1-1.88-.51,1,1,0,0,1,1-1.72,2.29,2.29,0,0,0,1,.23A9.17,9.17,0,0,0,18,42.17l.35-.07q-.29-.37-.54-.78a16.67,16.67,0,0,1-1.39-2.53,11.89,11.89,0,0,0-.78,1A1,1,0,0,1,14,38.59a20.8,20.8,0,0,1,2.06-2.36A1,1,0,0,1,17,36a1,1,0,0,1,.71.67l0,.11c0,.11.07.22.11.33a15.39,15.39,0,0,0,1.58,3.14A14.39,14.39,0,0,0,20.87,42a1,1,0,0,1,.22,1,1,1,0,0,1-.7.69c-.71.19-1.39.35-2,.46A12.13,12.13,0,0,1,16.12,44.36Z"/><path class="cls-7" d="M47.21,28.06A1,1,0,0,1,47,28a1,1,0,0,1-.72-.68,13.15,13.15,0,0,0-.9-2.17,14.65,14.65,0,0,0-1.88-2.83,3.6,3.6,0,0,0-.31-.34,1,1,0,0,1,.43-1.67l.49-.13A18.93,18.93,0,0,1,47,19.68c2.1-.19,3.48.25,4.1,1.32.89,1.55-.17,3.83-3.15,6.77A1,1,0,0,1,47.21,28.06ZM45.66,21.9a15.92,15.92,0,0,1,1.47,2.37c.16.31.32.63.46.94,1.75-2,1.87-3,1.73-3.21s-.68-.46-2.18-.32A11.31,11.31,0,0,0,45.66,21.9Z"/><path class="cls-2" d="M17,36a1,1,0,0,1-.71-.29,1,1,0,0,1,0-1.42l8-8a1,1,0,0,1,1.42,1.42l-8,8A1,1,0,0,1,17,36Z"/><path class="cls-2" d="M33,49a1,1,0,0,1-.71-.29,1,1,0,0,1,0-1.42l4.5-4.5a1,1,0,0,1,1.42,1.42l-4.5,4.5A1,1,0,0,1,33,49Z"/><path class="cls-2" d="M28,35a1,1,0,0,1-.71-.29,1,1,0,0,1,0-1.42l14-14a1,1,0,0,1,1.42,1.42l-14,14A1,1,0,0,1,28,35Z"/><path class="cls-2" d="M30.5,22.5a1,1,0,0,1-.71-.29,1,1,0,0,1,0-1.42l2.5-2.5a1,1,0,0,1,1.42,1.42l-2.5,2.5A1,1,0,0,1,30.5,22.5Z"/><path class="cls-7" d="M20.13,43.7a1,1,0,0,1-.74-.32,16.76,16.76,0,0,1-1.59-2.06A17.58,17.58,0,0,1,16,37.78c-.05-.14-.1-.3-.14-.44l0-.1A16.74,16.74,0,0,1,15,32.37c0-.09,0-.22,0-.37a17,17,0,0,1,2.35-8.63,17,17,0,0,1,10.47-7.85,1,1,0,0,1,.48,1.94A15,15,0,0,0,17,32a2.44,2.44,0,0,0,0,.27,15,15,0,0,0,.72,4.36l0,.12c0,.11.07.22.11.33a15.39,15.39,0,0,0,1.58,3.14,15.81,15.81,0,0,0,1,1.35A65.81,65.81,0,0,0,34,35.46a65.48,65.48,0,0,0,12.06-8.68,13.07,13.07,0,0,0-.71-1.6,14.65,14.65,0,0,0-1.88-2.83,3.6,3.6,0,0,0-.31-.34,14.38,14.38,0,0,0-3.38-2.82,13.67,13.67,0,0,0-2.23-1.12l-.08,0a14.13,14.13,0,0,0-3.75-.94A14.41,14.41,0,0,0,32,17a1,1,0,0,1,0-2,16.2,16.2,0,0,1,2,.12,16.59,16.59,0,0,1,4.19,1l.08,0a16.6,16.6,0,0,1,2.6,1.3,16.23,16.23,0,0,1,3.8,3.16,4.59,4.59,0,0,1,.4.44,16.49,16.49,0,0,1,2.11,3.19,14.87,14.87,0,0,1,1,2.5,1,1,0,0,1-.25,1A65.26,65.26,0,0,1,35,37.2a66.28,66.28,0,0,1-14.61,6.47A1.15,1.15,0,0,1,20.13,43.7Z"/><path class="cls-7" d="M17,25a6.83,6.83,0,0,1-3-.69,1,1,0,0,1,.88-1.8A5.12,5.12,0,0,0,17.6,23,17,17,0,0,1,22,18.26,2.35,2.35,0,0,0,22,18a5,5,0,0,0-10,0,4.78,4.78,0,0,0,.49,2.15,1,1,0,0,1-1.8.88A6.83,6.83,0,0,1,10,18a7,7,0,0,1,14,0,6,6,0,0,1-.07,1,1,1,0,0,1-.42.67,15.18,15.18,0,0,0-4.44,4.76,1,1,0,0,1-.66.47A7.25,7.25,0,0,1,17,25Z"/><path class="cls-7" d="M44.5,57A4.51,4.51,0,0,1,40,52.5a4.29,4.29,0,0,1,.1-.94,1,1,0,1,1,2,.42,2.31,2.31,0,0,0-.06.52,2.5,2.5,0,1,0,2-2.44,1,1,0,0,1-.42-2,4.29,4.29,0,0,1,.94-.1,4.5,4.5,0,0,1,0,9Z"/><path class="cls-7" d="M32,49a16.91,16.91,0,0,1-8.83-2.48,1,1,0,0,1,.21-1.8A69.17,69.17,0,0,0,36,38.92c1.3-.75,2.63-1.57,4-2.44a1,1,0,1,1,1.1,1.66c-1.35.9-2.71,1.75-4,2.52a76.46,76.46,0,0,1-10.79,5.18A15,15,0,0,0,46.88,33.9c-.8.65-1.65,1.3-2.53,2a1,1,0,0,1-1.18-1.6c1.51-1.12,2.91-2.25,4.16-3.35a1,1,0,0,1,1.66.67c0,.15,0,.28,0,.43A17,17,0,0,1,32,49Z"/></g></svg>